<?xml version="1.0" standalone="no"?><svg xmlns="http://www.w3.org/2000/svg" xmlns:xlink="http://www.w3.org/1999/xlink"><symbol viewBox="0 0 70 70" id="favicons--safari-pinned-tab" xmlns="http://www.w3.org/2000/svg"><path d="M25.3 1.4C17.1 4 11.2 8.5 5.2 16.5c-.4.5-1.7 3.6-2.9 6.7-4.7 12.4-.8 28.9 9 37.4 7.4 6.4 13.9 8.9 23.7 8.9 7.2 0 9.4-.4 14.5-2.8 7.3-3.4 13.9-10.1 17.4-17.7 2.1-4.6 2.5-6.9 2.5-14 0-4.7-.6-9.9-1.3-11.5-.7-1.7-1.2-3.2-1.2-3.5 0-2.2-12.2-15-14.3-15-.5 0-1.7-.6-2.5-1.4C46.3.4 32.4-.8 25.3 1.4z"/></symbol><symbol viewBox="0 0 443.52 443.52" id="left-arrow" xmlns="http://www.w3.org/2000/svg"><path d="M143.492 221.863L336.226 29.129c6.663-6.664 6.663-17.468 0-24.132-6.665-6.662-17.468-6.662-24.132 0l-204.8 204.8c-6.662 6.664-6.662 17.468 0 24.132l204.8 204.8c6.78 6.548 17.584 6.36 24.132-.42 6.387-6.614 6.387-17.099 0-23.712L143.492 221.863z"/></symbol><symbol viewBox="0 0 490.8 490.8" id="right-arrow" xmlns="http://www.w3.org/2000/svg"><path d="M135.685 3.128c-4.237-4.093-10.99-3.975-15.083.262-3.992 4.134-3.992 10.687 0 14.82l227.115 227.136-227.136 227.115c-4.237 4.093-4.354 10.845-.262 15.083 4.093 4.237 10.845 4.354 15.083.262.089-.086.176-.173.262-.262l234.667-234.667c4.164-4.165 4.164-10.917 0-15.083L135.685 3.128z"/><path d="M128.133 490.68a10.667 10.667 0 01-7.552-18.219l227.136-227.115L120.581 18.232c-4.171-4.171-4.171-10.933 0-15.104 4.171-4.171 10.933-4.171 15.104 0l234.667 234.667c4.164 4.165 4.164 10.917 0 15.083L135.685 487.544a10.663 10.663 0 01-7.552 3.136z"/></symbol></svg>